<svg xmlns="http://www.w3.org/2000/svg" width="1024" height="1024" viewBox="0 0 1024 1024">
  <path d="M 532 991 Z" fill="black"/>
  <path d="M 911 982 Z" fill="black"/>
  <path d="M 187 979 L 188 979 Z" fill="black"/>
  <path d="M 425 953 Z" fill="black"/>
  <path d="M 652 936 Z" fill="black"/>
  <path d="M 646 912 Z" fill="black"/>
  <path d="M 700 857 Z" fill="black"/>
  <path d="M 214 793 Z" fill="black"/>
  <path d="M 122 787 Z" fill="black"/>
  <path d="M 847 761 Z" fill="black"/>
  <path d="M 849 760 Z" fill="black"/>
  <path d="M 43 640 Z" fill="black"/>
  <path d="M 847 549 Z" fill="black"/>
  <path d="M 150 540 Z" fill="black"/>
  <path d="M 865 512 Z" fill="black"/>
  <path d="M 906 440 Z" fill="black"/>
  <path d="M 883 402 Z" fill="black"/>
  <path d="M 939 285 Z" fill="black"/>
  <path d="M 918 280 Z" fill="black"/>
  <path d="M 150 276 Z" fill="black"/>
  <path d="M 137 264 Z" fill="black"/>
  <path d="M 170 245 Z" fill="black"/>
  <path d="M 161 211 Z" fill="black"/>
  <path d="M 143 209 Z" fill="black"/>
  <path d="M 946 199 Z" fill="black"/>
  <path d="M 873 199 Z" fill="black"/>
  <path d="M 986 154 Z" fill="black"/>
  <path d="M 813 153 Z" fill="black"/>
  <path d="M 206 142 Z" fill="black"/>
  <path d="M 342 113 Z" fill="black"/>
  <path d="M 620 88 Z" fill="black"/>
  <path d="M 511 78 L 510 79 L 505 79 L 504 80 L 501 80 L 500 81 L 498 81 L 497 82 L 495 82 L 494 83 L 492 83 L 491 84 L 489 84 L 488 85 L 486 85 L 485 86 L 483 86 L 482 87 L 481 87 L 480 88 L 477 88 L 476 89 L 475 89 L 474 90 L 472 90 L 471 91 L 469 91 L 468 92 L 466 92 L 465 93 L 463 93 L 462 94 L 460 94 L 459 95 L 457 95 L 456 96 L 454 96 L 453 97 L 452 97 L 451 98 L 448 98 L 447 99 L 446 99 L 445 100 L 443 100 L 442 101 L 440 101 L 439 102 L 437 102 L 436 103 L 434 103 L 433 104 L 431 104 L 430 105 L 428 105 L 427 106 L 425 106 L 424 107 L 422 107 L 421 108 L 419 108 L 418 109 L 416 109 L 415 110 L 414 110 L 413 111 L 411 111 L 410 112 L 408 112 L 407 113 L 405 113 L 404 114 L 402 114 L 401 115 L 399 115 L 398 116 L 396 116 L 395 117 L 393 117 L 392 118 L 390 118 L 389 119 L 387 119 L 386 120 L 384 120 L 383 121 L 381 121 L 380 122 L 378 122 L 377 123 L 375 123 L 374 124 L 372 124 L 371 125 L 369 125 L 368 126 L 365 126 L 364 127 L 363 127 L 362 128 L 360 128 L 359 129 L 357 129 L 356 130 L 354 130 L 353 131 L 351 131 L 350 132 L 348 132 L 347 133 L 345 133 L 344 134 L 342 134 L 341 135 L 339 135 L 338 136 L 336 136 L 335 137 L 333 137 L 332 138 L 330 138 L 329 139 L 328 139 L 327 140 L 324 140 L 323 141 L 322 141 L 321 142 L 319 142 L 318 143 L 316 143 L 315 144 L 313 144 L 312 145 L 310 145 L 309 146 L 307 146 L 306 147 L 304 147 L 303 148 L 301 148 L 300 149 L 298 149 L 297 150 L 295 150 L 294 151 L 292 151 L 291 152 L 289 152 L 288 153 L 286 153 L 285 154 L 283 154 L 282 155 L 280 155 L 279 156 L 277 156 L 276 157 L 275 157 L 274 158 L 272 158 L 271 159 L 269 159 L 268 160 L 266 160 L 265 161 L 263 161 L 262 162 L 260 162 L 259 163 L 257 163 L 256 164 L 254 164 L 253 165 L 251 165 L 250 166 L 248 166 L 247 167 L 245 167 L 244 168 L 242 168 L 241 169 L 239 169 L 238 170 L 236 170 L 235 171 L 233 171 L 232 172 L 230 172 L 229 173 L 227 173 L 226 174 L 224 174 L 223 175 L 222 175 L 221 176 L 219 176 L 218 177 L 216 177 L 215 178 L 213 178 L 212 179 L 210 179 L 209 180 L 207 180 L 206 181 L 205 181 L 204 182 L 202 182 L 201 183 L 200 183 L 198 185 L 197 185 L 192 190 L 191 190 L 189 192 L 189 193 L 186 196 L 186 197 L 184 199 L 184 200 L 183 201 L 183 202 L 182 203 L 182 204 L 181 205 L 181 206 L 180 207 L 180 209 L 179 210 L 179 213 L 178 214 L 178 718 L 179 719 L 179 723 L 180 724 L 180 728 L 181 729 L 181 732 L 182 733 L 182 735 L 183 736 L 183 738 L 184 739 L 184 740 L 185 741 L 185 743 L 186 744 L 186 745 L 187 746 L 187 748 L 188 749 L 188 750 L 190 752 L 190 753 L 191 754 L 191 755 L 192 756 L 192 757 L 194 759 L 194 760 L 195 761 L 195 762 L 197 764 L 197 765 L 201 769 L 201 770 L 215 784 L 216 784 L 219 787 L 220 787 L 221 788 L 222 788 L 225 791 L 226 791 L 227 792 L 228 792 L 230 794 L 231 794 L 233 796 L 234 796 L 235 797 L 236 797 L 238 799 L 239 799 L 240 800 L 241 800 L 243 802 L 244 802 L 246 804 L 247 804 L 248 805 L 249 805 L 251 807 L 252 807 L 253 808 L 254 808 L 256 810 L 257 810 L 258 811 L 259 811 L 261 813 L 262 813 L 264 815 L 265 815 L 267 817 L 268 817 L 269 818 L 270 818 L 272 820 L 273 820 L 275 822 L 276 822 L 277 823 L 278 823 L 280 825 L 281 825 L 282 826 L 283 826 L 285 828 L 286 828 L 288 830 L 289 830 L 291 832 L 292 832 L 293 833 L 294 833 L 296 835 L 297 835 L 299 837 L 300 837 L 301 838 L 302 838 L 304 840 L 305 840 L 307 842 L 308 842 L 309 843 L 310 843 L 312 845 L 313 845 L 315 847 L 316 847 L 317 848 L 318 848 L 320 850 L 321 850 L 323 852 L 324 852 L 326 854 L 327 854 L 328 855 L 329 855 L 331 857 L 332 857 L 333 858 L 334 858 L 336 860 L 337 860 L 338 861 L 339 861 L 341 863 L 342 863 L 344 865 L 345 865 L 347 867 L 348 867 L 349 868 L 350 868 L 352 870 L 353 870 L 355 872 L 356 872 L 357 873 L 358 873 L 360 875 L 361 875 L 363 877 L 364 877 L 366 879 L 367 879 L 368 880 L 369 880 L 371 882 L 372 882 L 374 884 L 375 884 L 376 885 L 377 885 L 379 887 L 380 887 L 382 889 L 383 889 L 384 890 L 385 890 L 387 892 L 388 892 L 389 893 L 390 893 L 392 895 L 393 895 L 395 897 L 396 897 L 397 898 L 398 898 L 400 900 L 401 900 L 403 902 L 404 902 L 406 904 L 407 904 L 408 905 L 409 905 L 411 907 L 412 907 L 413 908 L 414 908 L 416 910 L 417 910 L 418 911 L 419 911 L 421 913 L 422 913 L 424 915 L 425 915 L 426 916 L 427 916 L 429 918 L 430 918 L 432 920 L 433 920 L 434 921 L 435 921 L 437 923 L 438 923 L 440 925 L 441 925 L 443 927 L 444 927 L 445 928 L 446 928 L 448 930 L 449 930 L 450 931 L 451 931 L 453 933 L 454 933 L 456 935 L 457 935 L 458 936 L 459 936 L 461 938 L 462 938 L 463 939 L 464 939 L 466 941 L 467 941 L 468 942 L 469 942 L 471 944 L 472 944 L 474 946 L 475 946 L 476 947 L 477 947 L 478 948 L 480 948 L 481 949 L 482 949 L 483 950 L 484 950 L 485 951 L 487 951 L 488 952 L 490 952 L 491 953 L 495 953 L 496 954 L 501 954 L 502 955 L 521 955 L 522 954 L 528 954 L 529 953 L 532 953 L 533 952 L 535 952 L 536 951 L 538 951 L 539 950 L 541 950 L 542 949 L 543 949 L 544 948 L 545 948 L 546 947 L 547 947 L 548 946 L 549 946 L 550 945 L 551 945 L 553 943 L 554 943 L 556 941 L 557 941 L 558 940 L 559 940 L 561 938 L 562 938 L 563 937 L 564 937 L 566 935 L 567 935 L 569 933 L 570 933 L 571 932 L 572 932 L 574 930 L 575 930 L 577 928 L 578 928 L 579 927 L 580 927 L 582 925 L 583 925 L 585 923 L 586 923 L 587 922 L 588 922 L 590 920 L 591 920 L 592 919 L 593 919 L 595 917 L 596 917 L 598 915 L 599 915 L 600 914 L 601 914 L 603 912 L 604 912 L 605 911 L 606 911 L 608 909 L 609 909 L 611 907 L 612 907 L 613 906 L 614 906 L 616 904 L 617 904 L 619 902 L 620 902 L 621 901 L 622 901 L 624 899 L 625 899 L 627 897 L 628 897 L 629 896 L 630 896 L 632 894 L 633 894 L 634 893 L 635 893 L 637 891 L 638 891 L 640 889 L 641 889 L 642 888 L 643 888 L 645 886 L 646 886 L 648 884 L 649 884 L 650 883 L 651 883 L 653 881 L 654 881 L 656 879 L 657 879 L 658 878 L 659 878 L 661 876 L 662 876 L 664 874 L 665 874 L 666 873 L 667 873 L 669 871 L 670 871 L 672 869 L 673 869 L 675 867 L 676 867 L 677 866 L 678 866 L 680 864 L 681 864 L 683 862 L 684 862 L 686 860 L 687 860 L 688 859 L 689 859 L 691 857 L 692 857 L 694 855 L 695 855 L 696 854 L 697 854 L 699 852 L 700 852 L 701 851 L 702 851 L 704 849 L 705 849 L 707 847 L 708 847 L 709 846 L 710 846 L 712 844 L 713 844 L 715 842 L 716 842 L 717 841 L 718 841 L 720 839 L 721 839 L 723 837 L 724 837 L 726 835 L 727 835 L 728 834 L 729 834 L 731 832 L 732 832 L 734 830 L 735 830 L 736 829 L 737 829 L 739 827 L 740 827 L 742 825 L 743 825 L 744 824 L 745 824 L 747 822 L 748 822 L 750 820 L 751 820 L 752 819 L 753 819 L 755 817 L 756 817 L 757 816 L 758 816 L 760 814 L 761 814 L 763 812 L 764 812 L 765 811 L 766 811 L 768 809 L 769 809 L 771 807 L 772 807 L 774 805 L 775 805 L 777 803 L 778 803 L 779 802 L 780 802 L 782 800 L 783 800 L 785 798 L 786 798 L 787 797 L 788 797 L 790 795 L 791 795 L 792 794 L 793 794 L 795 792 L 796 792 L 798 790 L 799 790 L 801 788 L 802 788 L 805 785 L 806 785 L 821 770 L 821 769 L 825 765 L 825 764 L 827 762 L 827 761 L 829 759 L 829 758 L 831 756 L 831 755 L 832 754 L 832 753 L 833 752 L 833 751 L 834 750 L 834 749 L 835 748 L 835 747 L 836 746 L 836 745 L 837 744 L 837 742 L 838 741 L 838 740 L 839 739 L 839 737 L 840 736 L 840 734 L 841 733 L 841 731 L 842 730 L 842 726 L 843 725 L 843 721 L 844 720 L 844 715 L 845 714 L 845 214 L 844 213 L 844 210 L 843 209 L 843 207 L 842 206 L 842 205 L 841 204 L 841 202 L 839 200 L 839 199 L 837 197 L 837 196 L 835 194 L 835 193 L 832 190 L 831 190 L 825 184 L 824 184 L 823 183 L 822 183 L 821 182 L 820 182 L 819 181 L 818 181 L 817 180 L 815 180 L 814 179 L 812 179 L 811 178 L 809 178 L 808 177 L 806 177 L 805 176 L 803 176 L 802 175 L 800 175 L 799 174 L 797 174 L 796 173 L 794 173 L 793 172 L 790 172 L 789 171 L 788 171 L 787 170 L 785 170 L 784 169 L 782 169 L 781 168 L 779 168 L 778 167 L 776 167 L 775 166 L 773 166 L 772 165 L 770 165 L 769 164 L 767 164 L 766 163 L 764 163 L 763 162 L 761 162 L 760 161 L 758 161 L 757 160 L 755 160 L 754 159 L 753 159 L 752 158 L 750 158 L 749 157 L 747 157 L 746 156 L 744 156 L 743 155 L 741 155 L 740 154 L 738 154 L 737 153 L 735 153 L 734 152 L 732 152 L 731 151 L 729 151 L 728 150 L 726 150 L 725 149 L 723 149 L 722 148 L 719 148 L 718 147 L 716 147 L 715 146 L 714 146 L 713 145 L 711 145 L 710 144 L 708 144 L 707 143 L 705 143 L 704 142 L 702 142 L 701 141 L 699 141 L 698 140 L 696 140 L 695 139 L 693 139 L 692 138 L 690 138 L 689 137 L 687 137 L 686 136 L 684 136 L 683 135 L 681 135 L 680 134 L 679 134 L 678 133 L 676 133 L 675 132 L 673 132 L 672 131 L 670 131 L 669 130 L 667 130 L 666 129 L 664 129 L 663 128 L 661 128 L 660 127 L 658 127 L 657 126 L 655 126 L 654 125 L 652 125 L 651 124 L 649 124 L 648 123 L 646 123 L 645 122 L 643 122 L 642 121 L 641 121 L 640 120 L 638 120 L 637 119 L 635 119 L 634 118 L 632 118 L 631 117 L 629 117 L 628 116 L 626 116 L 625 115 L 623 115 L 622 114 L 620 114 L 619 113 L 617 113 L 616 112 L 615 112 L 614 111 L 611 111 L 610 110 L 608 110 L 607 109 L 605 109 L 604 108 L 603 108 L 602 107 L 600 107 L 599 106 L 597 106 L 596 105 L 594 105 L 593 104 L 591 104 L 590 103 L 588 103 L 587 102 L 585 102 L 584 101 L 582 101 L 581 100 L 579 100 L 578 99 L 576 99 L 575 98 L 574 98 L 573 97 L 571 97 L 570 96 L 568 96 L 567 95 L 565 95 L 564 94 L 562 94 L 561 93 L 559 93 L 558 92 L 556 92 L 555 91 L 553 91 L 552 90 L 550 90 L 549 89 L 547 89 L 546 88 L 544 88 L 543 87 L 541 87 L 540 86 L 538 86 L 537 85 L 535 85 L 534 84 L 532 84 L 531 83 L 529 83 L 528 82 L 526 82 L 525 81 L 523 81 L 522 80 L 519 80 L 518 79 L 512 79 Z" fill="black"/>
  <path d="M 595 63 Z" fill="black"/>
</svg>